<?xml version="1.0" encoding="UTF-8"?>
<svg xmlns="http://www.w3.org/2000/svg" version="1.1" viewBox="0 0 216 144">
  <defs>
    <style>
      .cls-1 {
        fill: #8b9988;
      }

      .cls-2 {
        fill: #6c7689;
      }
    </style>
  </defs>
  <!-- Generator: Adobe Illustrator 28.7.5, SVG Export Plug-In . SVG Version: 1.2.0 Build 176)  -->
  <g>
    <g id="Layer_1">
      <g>
        <path class="cls-1" d="M69.57,80.85c4.71,8.69,1.67,13.36-8.13,14.27-9.12.85-15.95-2.39-20.51-10.42-1.3-2.29-2.44-4.78-4.66-6.42-2.38-1.76-4.4-.96-4.77,1.97-.16,1.2.08,2.45.12,3.67.17,4.41-1.07,5.88-5.36,6.36-6.2.7-9.36-2.19-9.37-8.61-.02-9.42,0-18.85,0-29.33-.29-8.16-.73-17.37-.91-26.59-.11-5.75.94-7.26,4.96-8.63,4.63-1.58,10.43-.08,12.92,3.23,1.09,1.44,1.01,3.05,1.11,4.68.31,5.35-.61,10.62-1.05,15.92-.45,5.32,1.74,6.84,6.54,4.57,1.82-.86,3.34-2.34,5.02-3.49,4.46-3.03,9.35-4.18,14.58-2.71,3.83,1.07,4.16,2.62,1.58,5.55-2.31,2.63-5.06,4.73-7.82,6.87-3.32,2.57-3.57,3.94-.31,6.23,8.18,5.74,11.63,14.7,16.07,22.89h0Z"/>
        <path class="cls-1" d="M104.88,75.32c1.42,9.35-4.27,16.03-13.67,16-3.84-.01-7.78.4-11.49-1.09-2.1-.84-4.37-1.77-4.5-4.44-.44-9.18-3.22-18.11-2.89-27.71-.15-4.17.86-8.58,1.29-13.05.23-2.37,1.16-3.81,3.65-4.05,4.46-.44,8.92-.98,13.38-1.35,3.25-.27,5.39,1.19,6.56,4.32,2.14,5.72,4.52,11.33,5.18,17.54.5,4.65,1.79,9.21,2.49,13.84h0ZM84.84,36.46c-4.17-.06-6.8-.93-8.73-3.39-1.51-1.92-1.91-4.03-1-6.33,2.34-5.92,12.07-8.63,17.15-4.77,2.91,2.21,3.27,7.27.62,10.44-2.38,2.84-5.49,4.16-8.04,4.05h0Z"/>
        <path class="cls-1" d="M134.29,77.17c6.52,10.8,3.1,16.96-9.54,17.69-4.27.25-8.07-1.05-11.74-2.94-2.74-1.41-4.26-3.81-4.52-6.87-.16-1.83-.03-3.68-.03-5.52,1.79-14.61.41-29.46,3-44.04.6-3.4.36-6.94.62-10.4.34-4.4,3.29-6.69,8.51-6.75,4.98-.06,8.04,2.42,8.29,6.78.78,14.08,2.68,28.1,2.54,42.24-.04,3.61,1,6.72,2.87,9.81h0Z"/>
        <path class="cls-1" d="M189.7,91.73c-16.45,6.28-24.68-5.72-23.09-17.98.87-6.75,1.28-13.41-.01-20.13-.93-4.85-3.15-5.78-7.11-2.92-1.95,1.41-3.06,3.41-3.61,5.56-1.52,5.94-2.8,11.95-2.92,19.26-.16,2.39.7,5.79,1.26,9.21.49,3-1.01,4.17-3.58,4.52-5.64.77-10.13-2.81-10.14-8.47-.03-12.48.13-24.96.33-37.43.06-3.61,1.94-5.57,5.48-6.21,1-.18,2.09-.4,3.04-.18,7.18,1.67,14.07.2,21.15-1.09,8.13-1.49,15.75,1.6,22.78,5.49,3.69,2.04,5.38,5.87,4.74,9.97-1.4,9.02-.2,17.93.44,26.89.73,10.27.58,9.94-8.77,13.51Z"/>
      </g>
      <g>
        <path class="cls-2" d="M35.53,117.73c1.96.22,2.6,1.34,1.71,3.13-1.44,2.9-3.98,4.19-7.05,4.64-.54.08-1.11.01-1.67.01-5.15.02-9.81-2.81-11.53-7.65-1.66-4.7-.69-11.41,6.08-13.13,3.83-.97,7.55-.76,11.07,1.21,1.51.84,2.62,2.07,3.27,3.67.55,1.36.17,2.17-1.28,2.42-1.52.27-3.01.22-4.23-.99-.56-.55-1.07-1.16-1.84-1.49-1.63-.69-3.15-.08-3.53,1.62-.51,2.25-.9,4.52-1.21,6.8-.2,1.43.31,2.03,1.7,2.43,1.59.46,2.96.05,4.18-1.05,1.22-1.09,2.6-1.82,4.32-1.63h0Z"/>
        <path class="cls-2" d="M47.64,117.92c-.36.17-.76.39-.76.83,0,.63.59.66,1.03.79,1.68.51,3.32.21,4.93-.33,1.97-.66,3.77-.36,5.42.86,1.31.96,1.37,1.55.19,2.65-1.88,1.75-4.17,2.59-6.7,2.82-.63.06-1.27,0-1.91,0-4.85.15-8.19-2.14-10.19-6.45-2.09-4.51-1.71-8.84,1.39-12.77,1.22-1.55,3-2.48,4.92-2.72,6.68-.82,13.32,1.89,14.67,10.21.28,1.7-.29,2.58-1.95,2.92-1.1.22-2.21.15-3.33.01-2.25-.28-4.44.13-6.61.7-.38.1-.74.28-1.1.45h0ZM46.87,111.78c-.14,1.04.62,1.55,1.41,1.95,1.36.68,3.44.03,4.16-1.27.33-.59.18-1.11-.41-1.39-.93-.44-1.94-.63-2.91-.77-.97,0-2.14.73-2.24,1.48h0Z"/>
        <path class="cls-2" d="M79.57,103.53c1.02,1.08,1.14,2.41.89,3.78-.09.51-.64.7-1.11.77-2.17.31-3.22,1.83-4.07,3.61-1.41,2.98-2.06,6.14-2.31,9.4-.21,2.75-.81,3.3-3.93,3.25-1.81-.18-3.89-.21-5.61-1.65-1.46-1.22-2.39-2.77-1.97-4.58.79-3.43.72-6.94,1.36-10.37.09-.46.21-.93.38-1.37,1.03-2.6,3.57-3.69,5.97-2.26,1.96,1.17,3.5,1.08,5.12-.45.51-.48,1.19-.81,1.84-1.07,1.36-.56,2.49-.05,3.44.95h0Z"/>
        <path class="cls-2" d="M101.27,118.44c.63,1.99.36,3.9-.07,5.88-.28,1.3-1.05,1.9-2.21,2.17-1.61.38-3.18.17-4.66-.5-1.95-.88-3.89-1.22-6-.5-1.05.35-2.22.22-3.32.09-2.4-.29-4.46-1.98-4.91-3.94-.62-2.72.37-5.16,2.73-6.57,1.72-1.03,3.63-1.6,5.57-2.04,1.26-.29,2.38-.87,3.4-1.66.75-.59.56-1.05-.17-1.42-1.17-.59-2.35-.96-3.63-.22-.75.44-1.56.78-2.34,1.16-.97.48-2.01.55-3.02.27-1.52-.41-1.81-1.23-1.09-2.67.97-1.93,2.71-2.88,4.64-3.46,3.83-1.15,7.57-.63,11.1,1.13,2.65,1.32,3.97,3.57,3.9,6.58-.02.64,0,1.27,0,1.91-.19,1.27-.29,2.57.1,3.79h0ZM91.55,118.96c.25-.75.63-1.64-.22-2.17-1.03-.65-2.13-.34-3.15.21-.57.3-1.09.66-1.47,1.18-.57.77-.43,1.45.24,2.11.57.56,1.27.59,1.99.59,1.48,0,2.12-.45,2.61-1.92h0Z"/>
        <path class="cls-2" d="M137.55,114.32c.19,1.7-.28,3.48-.51,5.21-.11.87-.45,1.72-.46,2.58-.03,2.07-1.21,2.96-3.05,3.3-.39.07-.81.09-1.17.24-3.3,1.34-4.88-.95-5.75-3.58-.31-.93-.32-1.88-.34-2.84-.01-.96,0-1.91,0-2.87-.02-1.9-.36-3.82.32-5.69.16-.44.19-.99-.33-1.27-.56-.3-1.1-.12-1.54.28-1.05.93-1.3,2.14-1.09,3.47.47,2.99.86,5.99.88,9.03.02,2.74-.18,3.1-2.7,4.01-1.01.36-2.02.38-3.06.29-1.15-.09-1.83-.63-2.26-1.77-.69-1.81-1.19-3.64-1.17-5.58.02-2.46-.25-4.94.34-7.38.06-.23.07-.48.06-.71-.04-1.12-.58-1.68-1.59-1.66-1.02.02-1.57.58-1.4,1.72.45,3.03-.04,6.05-.02,9.07,0,1.18-.27,2.37-.44,3.55-.23,1.54-1.22,2.34-2.68,2.67-1.11.25-2.23.32-3.32.03-1.38-.37-2.35-1.12-2.75-2.65-.87-3.33-.91-6.61.09-9.9.55-1.83,1.02-3.68,1.13-5.61.13-2.27,1.3-3.54,3.46-3.13,2.86.55,5.5.17,8.23-.57,1.39-.38,2.85-.09,4.18.58,1.93.97,3.81.92,5.7-.16,2.19-1.26,4.61-1.06,7-.92.98.06,1.69.53,1.95,1.48.82,2.91,1.96,5.77,2.29,8.77h0Z"/>
        <path class="cls-2" d="M151.53,119.29c.55,3.64-1.66,6.24-5.32,6.23-1.5,0-3.03.15-4.47-.43-.82-.33-1.7-.69-1.75-1.73-.17-3.57-1.25-7.05-1.12-10.78-.06-1.62.33-3.34.5-5.08.09-.92.45-1.48,1.42-1.58,1.74-.17,3.47-.38,5.21-.53,1.26-.11,2.1.46,2.55,1.68.83,2.23,1.76,4.41,2.02,6.82.19,1.81.7,3.58.97,5.38h0ZM143.73,104.16c-1.62-.02-2.65-.36-3.4-1.32-.59-.75-.74-1.57-.39-2.46.91-2.3,4.7-3.36,6.67-1.86,1.13.86,1.27,2.83.24,4.06-.92,1.11-2.14,1.62-3.13,1.57h0Z"/>
        <path class="cls-2" d="M171.58,117.73c1.96.22,2.6,1.34,1.71,3.13-1.44,2.9-3.98,4.19-7.05,4.64-.54.08-1.11.01-1.67.01-5.15.02-9.81-2.81-11.53-7.65-1.66-4.7-.69-11.41,6.08-13.13,3.83-.97,7.55-.76,11.07,1.21,1.51.84,2.62,2.07,3.27,3.67.55,1.36.17,2.17-1.28,2.42-1.52.27-3.01.22-4.23-.99-.56-.55-1.07-1.16-1.84-1.49-1.63-.69-3.15-.08-3.53,1.62-.51,2.25-.9,4.52-1.21,6.8-.2,1.43.31,2.03,1.7,2.43,1.59.46,2.96.05,4.18-1.05,1.22-1.09,2.6-1.82,4.32-1.63h0Z"/>
        <path class="cls-2" d="M199.69,118.53c.1,1.43.31,2.85.34,4.28.05,2.6-.98,3.91-3.52,4.22-6.11.73-12.2.69-18.25-.66-1.2-.27-2.02-.88-2.45-2.02-.31-.82-.67-1.63-.88-2.47-.63-2.52,1.07-4.46,3.67-4.18,1.93.21,3.6,1.2,5.35,1.96,2.09.9,4.12.58,5.48-.88,1.02-1.1.91-1.95-.42-2.66-.92-.49-1.93-.69-2.97-.8-2.77-.28-5.53-.73-8.18-1.61-3.47-1.15-4.28-4.01-2.01-6.9.92-1.18,2.13-1.88,3.57-2.23,3.2-.78,6.45-1.02,9.71-.73,2.38.22,4.45,1.21,5.91,3.2,1.2,1.65.62,2.87-1.41,3.07-1.12.11-2.01-.26-2.78-1.07-1.04-1.08-2.06-.93-3.29.24,1.64,1.4,3.28,2.35,5.05,3.08,1.54.64,3.12,1.2,4.56,2.07,1.53.94,2.41,2.26,2.53,4.08h0Z"/>
      </g>
    </g>
  </g>
</svg>